<?xml version="1.0" encoding="UTF-8"?>
<svg xmlns="http://www.w3.org/2000/svg" xmlns:xlink="http://www.w3.org/1999/xlink" width="960pt" height="480pt" viewBox="0 0 960 480" version="1.1">
<g id="surface1">
<path style=" stroke:none;fill-rule:nonzero;;fill-opacity:1;" fill="#ffffff" d="M 726.375 74.324219 C 695.699219 76.5 670.273438 80.550781 605.851562 93.375 C 537.148438 107.023438 512.175781 110.25 474.824219 110.25 C 440.476562 110.324219 424.5 108.148438 369.75 96 C 338.476562 89.101562 330.75 87.523438 317.625 85.574219 C 296.101562 82.273438 267 78.449219 248.25 76.574219 C 213.375 72.976562 178.050781 73.425781 126 78.074219 C 60.375 83.925781 37.800781 84.75 6.824219 82.800781 L -0.226562 82.273438 L 0.226562 93.824219 C 1.5 123.300781 7.273438 162.75 12.523438 177.148438 C 15.375 185.101562 17.175781 187.648438 27.75 198 C 37.199219 207.300781 37.351562 207.449219 39.226562 213.375 C 40.273438 216.675781 42.375 224.101562 43.875 229.875 C 49.800781 252.75 60.75 282.300781 76.5 317.625 C 86.851562 341.023438 90.601562 348.074219 96.375 355.273438 C 124.125 389.925781 189.824219 410.550781 257.175781 405.824219 C 289.574219 403.5 310.125 398.773438 329.398438 389.175781 C 364.5 371.625 391.050781 342.898438 417.375 294 C 427.949219 274.425781 430.5 267.898438 437.023438 243.75 C 442.351562 223.949219 444.824219 216.601562 449.398438 207.226562 C 455.773438 193.949219 458.550781 192.824219 480.75 193.949219 C 494.625 194.699219 494.851562 194.699219 498.074219 196.875 C 506.175781 202.5 513.074219 215.625 520.125 238.875 C 527.851562 264.449219 532.800781 277.273438 542.25 296.625 C 564.375 342 592.273438 370.273438 631.648438 387.300781 C 687.976562 411.675781 756.824219 411.449219 808.125 386.699219 C 826.351562 377.925781 840.300781 368.023438 852.75 355.050781 C 868.574219 338.550781 879.226562 320.101562 887.925781 294.074219 C 891.074219 284.625 892.949219 277.875 899.625 251.625 C 906.375 224.773438 909.824219 213.375 912.976562 207.523438 C 915.601562 202.574219 920.550781 197.773438 927.226562 193.800781 C 933.976562 189.75 935.773438 187.800781 939.375 180.75 C 950.324219 158.925781 961.125 115.199219 959.773438 97.726562 C 959.25 91.050781 956.925781 85.875 953.398438 83.476562 C 951.449219 82.199219 949.351562 81.824219 942.148438 81.375 C 932.476562 80.699219 906.148438 81.375 894.375 82.5 C 890.25 82.949219 878.773438 83.476562 868.875 83.699219 C 854.699219 84.074219 849 83.925781 842.25 83.023438 C 837.523438 82.351562 825 80.625 814.5 79.199219 C 804 77.773438 790.351562 76.050781 784.125 75.375 C 770.550781 73.875 739.800781 73.351562 726.375 74.324219 Z M 289.875 105.375 C 322.273438 109.199219 359.925781 120.148438 379.875 131.398438 C 393.074219 138.824219 403.050781 147.75 408.675781 157.050781 C 423.976562 182.550781 417.074219 221.851562 386.25 284.625 C 375.675781 306.148438 366.824219 318.824219 352.574219 332.925781 C 329.476562 355.800781 300.449219 369.75 264 375.523438 C 252 377.398438 218.925781 377.398438 205.726562 375.523438 C 194.101562 373.875 179.324219 370.875 171.300781 368.625 C 143.101562 360.375 120.074219 340.273438 106.574219 311.925781 C 101.851562 302.023438 94.800781 280.726562 89.398438 259.875 C 80.175781 224.550781 76.425781 182.625 80.773438 163.125 C 87.074219 134.550781 113.324219 118.273438 165.375 110.699219 C 177.300781 108.898438 205.574219 105.898438 218.25 105 C 224.625 104.550781 231.226562 104.101562 232.875 103.949219 C 240.074219 103.273438 280.726562 104.25 289.875 105.375 Z M 742.5 105.300781 C 806.101562 111 832.800781 117.300781 853.351562 131.476562 C 871.351562 143.851562 877.648438 160.199219 876.449219 191.625 C 875.324219 222.898438 868.949219 255.226562 856.5 292.648438 C 849.074219 315.074219 841.875 327.824219 829.273438 341.023438 C 813.523438 357.449219 797.25 366.148438 771.824219 371.699219 C 749.550781 376.5 721.800781 378.449219 701.550781 376.574219 C 656.101562 372.300781 618.300781 353.023438 591.523438 320.398438 C 578.101562 303.898438 563.398438 275.699219 550.726562 242.023438 C 540.226562 213.976562 536.699219 189.449219 540.75 172.574219 C 548.023438 142.351562 578.851562 122.851562 640.125 109.574219 C 650.25 107.398438 671.023438 104.550781 681 103.949219 C 691.351562 103.351562 729.976562 104.25 742.5 105.300781 Z M 742.5 105.300781 "/>
</g>
</svg>
